<?xml version="1.0" encoding="utf-8"?>
<!-- Generator: Adobe Illustrator 22.0.1, SVG Export Plug-In . SVG Version: 6.00 Build 0)  -->
<svg version="1.1" id="Capa_1" xmlns="http://www.w3.org/2000/svg" xmlns:xlink="http://www.w3.org/1999/xlink" x="0px" y="0px"
	 viewBox="0 0 402 402" style="enable-background:new 0 0 402 402;" xml:space="preserve">
<style type="text/css">
	.st0{fill:#FFA500;}
</style>
<g>
	<path class="st0" d="M345.2,382l-10-45.4c-0.6-2.7-2-4.7-4.3-6c-2.5-1.3-4.9-1.5-7.4-0.6l-1.4,0.6l-3.4,0.9
		c-1.5,0.4-3.3,0.8-5.3,1.3c-2,0.5-4.3,0.9-7,1.4c-2.7,0.5-5.5,0.9-8.4,1.3c-2.9,0.4-6.1,0.7-9.6,1c-3.4,0.3-6.9,0.4-10.3,0.4
		c-24.2,0-45.9-6.5-65.2-19.6c-19.3-13-33.5-30.7-42.7-53h110.5c2.1,0,4-0.7,5.7-2.1c1.7-1.4,2.8-3.2,3.1-5.3l6.9-32
		c0.6-2.8,0-5.4-1.7-7.7c-1.9-2.3-4.3-3.4-7.1-3.4h-131c-0.6-12.9-0.6-22.9,0-30h139.3c5.1,0,8.2-2.5,9.1-7.4l6.9-32.5
		c0.6-2.7-0.1-5.1-2-7.4c-1.7-2.3-4.1-3.4-7.1-3.4H169c9.5-21.3,23.8-38.1,42.8-50.2c19-12.2,40.5-18.3,64.5-18.3
		c0.8-0.4,3.6-0.3,8.4,0.3c4.9,0.6,7.6,0.8,8.3,0.7c0.7-0.1,3.1,0.2,7.4,0.9c4.3,0.7,6.4,1,6.4,1l5,1c1.4,0.3,2.5,0.5,3.3,0.7
		l1.1,0.3c2.5,0.8,4.8,0.5,6.9-0.7c2.1-1.2,3.4-3.1,4-5.6l12.3-45.4c0.6-2.5,0.3-4.8-0.9-6.9c-1.7-2.3-3.6-3.7-5.7-4.3
		c-17.5-4.4-36-6.6-55.4-6.6c-42.6,0-80.8,12.2-114.3,36.5c-33.6,24.4-56.8,56.5-69.5,96.5h-28c-2.7,0-4.9,0.9-6.6,2.6
		c-1.7,1.7-2.6,3.9-2.6,6.6v32.5c0,2.7,0.9,4.9,2.6,6.6c1.7,1.7,3.9,2.6,6.6,2.6h19.1c-0.6,9.1-0.7,19.1-0.3,30H65.7
		c-2.5,0-4.6,0.9-6.4,2.7c-1.8,1.8-2.7,3.9-2.7,6.4v32.3c0,2.5,0.9,4.6,2.7,6.4c1.8,1.8,3.9,2.7,6.4,2.7h27.1
		c12,42.1,34.6,75.5,68,100.4C194.1,389.6,233,402,277.5,402c3.6,0,7.3-0.1,11-0.3c3.7-0.2,7.2-0.5,10.4-0.9
		c3.2-0.4,6.4-0.8,9.6-1.3c3.1-0.5,6-0.9,8.6-1.4c2.6-0.5,5-0.9,7.3-1.4c2.3-0.5,4.3-1,6.1-1.6c1.8-0.6,3.3-1,4.6-1.3
		c1.2-0.3,2.2-0.6,3-1l1.4-0.3c2.1-0.8,3.7-2.1,4.9-4.1C345.5,386.4,345.7,384.3,345.2,382z"/>
</g>
</svg>
